  0
SECTION
  2
HEADER
  9
$ACADVER
  1
AC1015
  9
$ACADMAINTVER
 70
     6
  9
$DWGCODEPAGE
  3
ANSI_1252
  9
$INSBASE
 10
0.0
 20
0.0
 30
0.0
  9
$EXTMIN
 10
57.64992032
 20
5.9408067869
 30
0.0
  9
$EXTMAX
 10
106.063040369
 20
136.4092340037
 30
0.0
  9
$LIMMIN
 10
0.0
 20
0.0
  9
$LIMMAX
 10
420.0
 20
297.0
  9
$ORTHOMODE
 70
     0
  9
$REGENMODE
 70
     1
  9
$FILLMODE
 70
     1
  9
$QTEXTMODE
 70
     0
  9
$MIRRTEXT
 70
     1
  9
$LTSCALE
 40
1.0
  9
$ATTMODE
 70
     1
  9
$TEXTSIZE
 40
3.5
  9
$TRACEWID
 40
1.0
  9
$TEXTSTYLE
  7
Standard
  9
$CLAYER
  8
0
  9
$CELTYPE
  6
ByLayer
  9
$CECOLOR
 62
   256
  9
$CELTSCALE
 40
1.0
  9
$DISPSILH
 70
     0
  9
$DIMSCALE
 40
1.0
  9
$DIMASZ
 40
3.302
  9
$DIMEXO
 40
0.0
  9
$DIMDLI
 40
3.75
  9
$DIMRND
 40
0.0
  9
$DIMDLE
 40
0.0
  9
$DIMEXE
 40
1.0
  9
$DIMTP
 40
0.0
  9
$DIMTM
 40
0.0
  9
$DIMTXT
 40
3.5
  9
$DIMCEN
 40
2.5
  9
$DIMTSZ
 40
0.0
  9
$DIMTOL
 70
     0
  9
$DIMLIM
 70
     0
  9
$DIMTIH
 70
     1
  9
$DIMTOH
 70
     1
  9
$DIMSE1
 70
     0
  9
$DIMSE2
 70
     0
  9
$DIMTAD
 70
     1
  9
$DIMZIN
 70
     1
  9
$DIMBLK
  1

  9
$DIMASO
 70
     1
  9
$DIMSHO
 70
     1
  9
$DIMPOST
  1

  9
$DIMAPOST
  1

  9
$DIMALT
 70
     0
  9
$DIMALTD
 70
     3
  9
$DIMALTF
 40
0.0393700787
  9
$DIMLFAC
 40
1.0
  9
$DIMTOFL
 70
     1
  9
$DIMTVP
 40
0.0
  9
$DIMTIX
 70
     0
  9
$DIMSOXD
 70
     0
  9
$DIMSAH
 70
     0
  9
$DIMBLK1
  1

  9
$DIMBLK2
  1

  9
$DIMSTYLE
  2
ISO-25
  9
$DIMCLRD
 70
     0
  9
$DIMCLRE
 70
     0
  9
$DIMCLRT
 70
     0
  9
$DIMTFAC
 40
1.0
  9
$DIMGAP
 40
1.524
  9
$DIMJUST
 70
     0
  9
$DIMSD1
 70
     0
  9
$DIMSD2
 70
     0
  9
$DIMTOLJ
 70
     0
  9
$DIMTZIN
 70
     1
  9
$DIMALTZ
 70
     0
  9
$DIMALTTZ
 70
     0
  9
$DIMUPT
 70
     0
  9
$DIMDEC
 70
     2
  9
$DIMTDEC
 70
     2
  9
$DIMALTU
 70
     2
  9
$DIMALTTD
 70
     3
  9
$DIMTXSTY
  7
Standard
  9
$DIMAUNIT
 70
     0
  9
$DIMADEC
 70
     2
  9
$DIMALTRND
 40
0.0
  9
$DIMAZIN
 70
     0
  9
$DIMDSEP
 70
    44
  9
$DIMATFIT
 70
     3
  9
$DIMFRAC
 70
     0
  9
$DIMLDRBLK
  1

  9
$DIMLUNIT
 70
     2
  9
$DIMLWD
 70
    -2
  9
$DIMLWE
 70
    -2
  9
$DIMTMOVE
 70
     0
  9
$LUNITS
 70
     2
  9
$LUPREC
 70
     2
  9
$SKETCHINC
 40
1.0
  9
$FILLETRAD
 40
0.0
  9
$AUNITS
 70
     0
  9
$AUPREC
 70
     2
  9
$MENU
  1
.
  9
$ELEVATION
 40
0.0
  9
$PELEVATION
 40
0.0
  9
$THICKNESS
 40
0.0
  9
$LIMCHECK
 70
     0
  9
$CHAMFERA
 40
0.0
  9
$CHAMFERB
 40
0.0
  9
$CHAMFERC
 40
0.0
  9
$CHAMFERD
 40
0.0
  9
$SKPOLY
 70
     0
  9
$TDCREATE
 40
2461007.412158311
  9
$TDUCREATE
 40
2461007.662158311
  9
$TDUPDATE
 40
2461007.412367385
  9
$TDUUPDATE
 40
2461007.662367385
  9
$TDINDWG
 40
0.0000000116
  9
$TDUSRTIMER
 40
0.0000000116
  9
$USRTIMER
 70
     1
  9
$ANGBASE
 50
0.0
  9
$ANGDIR
 70
     0
  9
$PDMODE
 70
     0
  9
$PDSIZE
 40
-1.0
  9
$PLINEWID
 40
0.0
  9
$SPLFRAME
 70
     0
  9
$SPLINETYPE
 70
     6
  9
$SPLINESEGS
 70
     8
  9
$HANDSEED
  5
A3
  9
$SURFTAB1
 70
     6
  9
$SURFTAB2
 70
     6
  9
$SURFTYPE
 70
     6
  9
$SURFU
 70
     6
  9
$SURFV
 70
     6
  9
$UCSBASE
  2

  9
$UCSNAME
  2

  9
$UCSORG
 10
0.0
 20
0.0
 30
0.0
  9
$UCSXDIR
 10
1.0
 20
0.0
 30
0.0
  9
$UCSYDIR
 10
0.0
 20
1.0
 30
0.0
  9
$UCSORTHOREF
  2

  9
$UCSORTHOVIEW
 70
     0
  9
$UCSORGTOP
 10
0.0
 20
0.0
 30
0.0
  9
$UCSORGBOTTOM
 10
0.0
 20
0.0
 30
0.0
  9
$UCSORGLEFT
 10
0.0
 20
0.0
 30
0.0
  9
$UCSORGRIGHT
 10
0.0
 20
0.0
 30
0.0
  9
$UCSORGFRONT
 10
0.0
 20
0.0
 30
0.0
  9
$UCSORGBACK
 10
0.0
 20
0.0
 30
0.0
  9
$PUCSBASE
  2

  9
$PUCSNAME
  2

  9
$PUCSORG
 10
0.0
 20
0.0
 30
0.0
  9
$PUCSXDIR
 10
1.0
 20
0.0
 30
0.0
  9
$PUCSYDIR
 10
0.0
 20
1.0
 30
0.0
  9
$PUCSORTHOREF
  2

  9
$PUCSORTHOVIEW
 70
     0
  9
$PUCSORGTOP
 10
0.0
 20
0.0
 30
0.0
  9
$PUCSORGBOTTOM
 10
0.0
 20
0.0
 30
0.0
  9
$PUCSORGLEFT
 10
0.0
 20
0.0
 30
0.0
  9
$PUCSORGRIGHT
 10
0.0
 20
0.0
 30
0.0
  9
$PUCSORGFRONT
 10
0.0
 20
0.0
 30
0.0
  9
$PUCSORGBACK
 10
0.0
 20
0.0
 30
0.0
  9
$USERI1
 70
     0
  9
$USERI2
 70
     0
  9
$USERI3
 70
     0
  9
$USERI4
 70
     0
  9
$USERI5
 70
     0
  9
$USERR1
 40
0.0
  9
$USERR2
 40
0.0
  9
$USERR3
 40
0.0
  9
$USERR4
 40
0.0
  9
$USERR5
 40
0.0
  9
$WORLDVIEW
 70
     1
  9
$SHADEDGE
 70
     3
  9
$SHADEDIF
 70
    70
  9
$TILEMODE
 70
     1
  9
$MAXACTVP
 70
    64
  9
$PINSBASE
 10
0.0
 20
0.0
 30
0.0
  9
$PLIMCHECK
 70
     0
  9
$PEXTMIN
 10
1.0000000000E+20
 20
1.0000000000E+20
 30
1.0000000000E+20
  9
$PEXTMAX
 10
-1.0000000000E+20
 20
-1.0000000000E+20
 30
-1.0000000000E+20
  9
$PLIMMIN
 10
0.0
 20
0.0
  9
$PLIMMAX
 10
420.0
 20
297.0
  9
$UNITMODE
 70
     0
  9
$VISRETAIN
 70
     1
  9
$PLINEGEN
 70
     0
  9
$PSLTSCALE
 70
     1
  9
$TREEDEPTH
 70
  3020
  9
$CMLSTYLE
  2
Standard
  9
$CMLJUST
 70
     0
  9
$CMLSCALE
 40
20.0
  9
$PROXYGRAPHICS
 70
     1
  9
$MEASUREMENT
 70
     1
  9
$CELWEIGHT
370
    -1
  9
$ENDCAPS
280
     0
  9
$JOINSTYLE
280
     0
  9
$LWDISPLAY
290
     1
  9
$INSUNITS
 70
     4
  9
$HYPERLINKBASE
  1

  9
$STYLESHEET
  1

  9
$XEDIT
290
     1
  9
$CEPSNTYPE
380
     0
  9
$PSTYLEMODE
290
     1
  9
$FINGERPRINTGUID
  2
{83292c9b-9589-4e1a-914d-fc7c4387dcdd}
  9
$VERSIONGUID
  2
{FAEB1C32-E019-11D5-929B-00C0DF256EC4}
  9
$EXTNAMES
290
     1
  9
$PSVPSCALE
 40
0.0
  9
$OLESTARTUP
290
     0
  0
ENDSEC
  0
SECTION
  2
CLASSES
  0
CLASS
  1
ACDBDICTIONARYWDFLT
  2
AcDbDictionaryWithDefault
  3
ObjectDBX Classes
 90
        0
280
     0
281
     0
  0
CLASS
  1
VISUALSTYLE
  2
AcDbVisualStyle
  3
ObjectDBX Classes
 90
     4095
280
     0
281
     0
  0
CLASS
  1
MATERIAL
  2
AcDbMaterial
  3
ObjectDBX Classes
 90
     1153
280
     0
281
     0
  0
CLASS
  1
SCALE
  2
AcDbScale
  3
ObjectDBX Classes
 90
     1153
280
     0
281
     0
  0
CLASS
  1
TABLESTYLE
  2
AcDbTableStyle
  3
ObjectDBX Classes
 90
     4095
280
     0
281
     0
  0
CLASS
  1
MLEADERSTYLE
  2
AcDbMLeaderStyle
  3
ACDB_MLEADERSTYLE_CLASS
 90
     4095
280
     0
281
     0
  0
CLASS
  1
SUN
  2
AcDbSun
  3
SCENEOE
 90
     1153
280
     0
281
     0
  0
CLASS
  1
ACDBPLACEHOLDER
  2
AcDbPlaceHolder
  3
ObjectDBX Classes
 90
        0
280
     0
281
     0
  0
CLASS
  1
LAYOUT
  2
AcDbLayout
  3
ObjectDBX Classes
 90
        0
280
     0
281
     0
  0
ENDSEC
  0
SECTION
  2
TABLES
  0
TABLE
  2
VPORT
  5
8
330
0
100
AcDbSymbolTable
 70
     1
  0
VPORT
  5
29
330
8
100
AcDbSymbolTableRecord
100
AcDbViewportTableRecord
  2
*Active
 70
     0
 10
0.0
 20
0.0
 11
1.0
 21
1.0
 12
81.8564803445
 22
71.1750203953
 13
0.0
 23
0.0
 14
10.0
 24
10.0
 15
10.0
 25
10.0
 16
0.0
 26
0.0
 36
1.0
 17
0.0
 27
0.0
 37
0.0
 40
133.0777957611
 41
0.3710715388
 42
50.0
 43
0.0
 44
0.0
 50
0.0
 51
0.0
 71
     0
 72
   100
 73
     1
 74
     3
 75
     0
 76
     0
 77
     0
 78
     0
281
     0
 65
     1
110
0.0
120
0.0
130
0.0
111
1.0
121
0.0
131
0.0
112
0.0
122
1.0
132
0.0
 79
     0
146
0.0
  0
ENDTAB
  0
TABLE
  2
LTYPE
  5
5
330
0
100
AcDbSymbolTable
 70
     6
  0
LTYPE
  5
14
330
5
100
AcDbSymbolTableRecord
100
AcDbLinetypeTableRecord
  2
ByBlock
 70
     0
  3

 72
    65
 73
     0
 40
0.0
  0
LTYPE
  5
15
330
5
100
AcDbSymbolTableRecord
100
AcDbLinetypeTableRecord
  2
ByLayer
 70
     0
  3

 72
    65
 73
     0
 40
0.0
  0
LTYPE
  5
16
330
5
100
AcDbSymbolTableRecord
100
AcDbLinetypeTableRecord
  2
Continuous
 70
     0
  3
Solid line
 72
    65
 73
     0
 40
0.0
  0
LTYPE
  5
5E
330
5
100
AcDbSymbolTableRecord
100
AcDbLinetypeTableRecord
  2
HIDDEN
 70
     0
  3
Hidden __ __ __ __ __ __ __ __ __ __ __ __ __ __
 72
    65
 73
     2
 40
1.905
 49
1.27
 74
     0
 49
-0.635
 74
     0
  0
LTYPE
  5
5F
330
5
100
AcDbSymbolTableRecord
100
AcDbLinetypeTableRecord
  2
PHANTOM
 70
     0
  3
Phantom ______  __  __  ______  __  __  ______
 72
    65
 73
     6
 40
12.7
 49
6.35
 74
     0
 49
-1.27
 74
     0
 49
1.27
 74
     0
 49
-1.27
 74
     0
 49
1.27
 74
     0
 49
-1.27
 74
     0
  0
LTYPE
  5
60
330
5
100
AcDbSymbolTableRecord
100
AcDbLinetypeTableRecord
  2
CENTER
 70
     0
  3
Center ____ _ ____ _ ____ _ ____ _ ____ _ ____
 72
    65
 73
     4
 40
10.16
 49
6.35
 74
     0
 49
-1.27
 74
     0
 49
1.27
 74
     0
 49
-1.27
 74
     0
  0
LTYPE
  5
61
330
5
100
AcDbSymbolTableRecord
100
AcDbLinetypeTableRecord
  2
CENTERX2
 70
     0
  3
Center (2x) ________  __  ________  __  _____
 72
    65
 73
     4
 40
20.32
 49
12.7
 74
     0
 49
-2.54
 74
     0
 49
2.54
 74
     0
 49
-2.54
 74
     0
  0
LTYPE
  5
62
330
5
100
AcDbSymbolTableRecord
100
AcDbLinetypeTableRecord
  2
DOT2
 70
     0
  3
Dot (.5x) ........................................
 72
    65
 73
     2
 40
0.635
 49
0.0
 74
     0
 49
-0.635
 74
     0
  0
ENDTAB
  0
TABLE
  2
LAYER
  5
2
330
0
100
AcDbSymbolTable
 70
     1
  0
LAYER
  5
10
330
2
100
AcDbSymbolTableRecord
100
AcDbLayerTableRecord
  2
0
 70
     0
 62
     7
  6
Continuous
370
    -3
390
F
  0
ENDTAB
  0
TABLE
  2
STYLE
  5
3
330
0
100
AcDbSymbolTable
 70
     2
  0
STYLE
  5
11
330
3
100
AcDbSymbolTableRecord
100
AcDbTextStyleTableRecord
  2
Standard
 70
     0
 40
0.0
 41
1.0
 50
0.0
 71
     0
 42
3.5
  3
txt
  4

  0
STYLE
  5
9F
330
3
100
AcDbSymbolTableRecord
100
AcDbTextStyleTableRecord
  2
SLDTEXTSTYLE0
 70
     0
 40
0.0
 41
0.7
 50
0.0
 71
     0
 42
3.5
  3
TXT
  4

  0
ENDTAB
  0
TABLE
  2
VIEW
  5
6
330
0
100
AcDbSymbolTable
 70
     0
  0
ENDTAB
  0
TABLE
  2
UCS
  5
7
330
0
100
AcDbSymbolTable
 70
     0
  0
ENDTAB
  0
TABLE
  2
APPID
  5
9
330
0
100
AcDbSymbolTable
 70
     1
  0
APPID
  5
12
330
9
100
AcDbSymbolTableRecord
100
AcDbRegAppTableRecord
  2
ACAD
 70
     0
  0
ENDTAB
  0
TABLE
  2
DIMSTYLE
  5
A
330
0
100
AcDbSymbolTable
 70
     1
100
AcDbDimStyleTable
  0
DIMSTYLE
105
27
330
A
100
AcDbSymbolTableRecord
100
AcDbDimStyleTableRecord
  2
ISO-25
 70
     0
 41
2.5
 42
0.625
 43
3.75
 44
1.25
 73
     0
 74
     0
 77
     1
 78
     8
140
2.5
141
2.5
143
0.0393700787
147
0.625
171
     3
172
     1
178
     0
271
     2
272
     2
274
     3
278
    44
283
     0
284
     8
340
11
  0
ENDTAB
  0
TABLE
  2
BLOCK_RECORD
  5
1
330
0
100
AcDbSymbolTable
 70
     1
  0
BLOCK_RECORD
  5
1F
330
1
100
AcDbSymbolTableRecord
100
AcDbBlockTableRecord
  2
*Model_Space
340
22
  0
BLOCK_RECORD
  5
1B
330
1
100
AcDbSymbolTableRecord
100
AcDbBlockTableRecord
  2
*Paper_Space
340
1E
  0
BLOCK_RECORD
  5
23
330
1
100
AcDbSymbolTableRecord
100
AcDbBlockTableRecord
  2
*Paper_Space0
340
26
  0
ENDTAB
  0
ENDSEC
  0
SECTION
  2
BLOCKS
  0
BLOCK
  5
20
330
1F
100
AcDbEntity
  8
0
100
AcDbBlockBegin
  2
*Model_Space
 70
     0
 10
0.0
 20
0.0
 30
0.0
  3
*Model_Space
  1

  0
ENDBLK
  5
21
330
1F
100
AcDbEntity
  8
0
100
AcDbBlockEnd
  0
BLOCK
  5
1C
330
1B
100
AcDbEntity
 67
     1
  8
0
100
AcDbBlockBegin
  2
*Paper_Space
 70
     0
 10
0.0
 20
0.0
 30
0.0
  3
*Paper_Space
  1

  0
ENDBLK
  5
1D
330
1B
100
AcDbEntity
 67
     1
  8
0
100
AcDbBlockEnd
  0
BLOCK
  5
24
330
23
100
AcDbEntity
  8
0
100
AcDbBlockBegin
  2
*Paper_Space0
 70
     0
 10
0.0
 20
0.0
 30
0.0
  3
*Paper_Space0
  1

  0
ENDBLK
  5
25
330
23
100
AcDbEntity
  8
0
100
AcDbBlockEnd
  0
ENDSEC
  0
SECTION
  2
ENTITIES
  0
LINE
  5
65
330
1F
100
AcDbEntity
  8
0
  6
Continuous
 62
     7
100
AcDbLine
 10
67.3523388342
 20
75.6725014908
 30
0.0
 11
72.7492558889
 21
75.9932335537
 31
0.0
  0
LINE
  5
66
330
1F
100
AcDbEntity
  8
0
  6
Continuous
 62
     7
100
AcDbLine
 10
72.7492558889
 20
75.9932335537
 30
0.0
 11
76.88624314
 21
76.2390895566
 31
0.0
  0
LINE
  5
67
330
1F
100
AcDbEntity
  8
0
  6
Continuous
 62
     7
100
AcDbLine
 10
76.88624314
 20
76.2390895566
 30
0.0
 11
79.8226620712
 21
76.2390895566
 31
0.0
  0
LINE
  5
68
330
1F
100
AcDbEntity
  8
0
  6
Continuous
 62
     7
100
AcDbLine
 10
79.8226620712
 20
76.2390895566
 30
0.0
 11
83.9335052746
 21
76.2390895566
 31
0.0
  0
LINE
  5
69
330
1F
100
AcDbEntity
  8
0
  6
Continuous
 62
     7
100
AcDbLine
 10
83.9335052746
 20
76.2390895566
 30
0.0
 11
87.2135514625
 21
76.2390895566
 31
0.0
  0
LINE
  5
6A
330
1F
100
AcDbEntity
  8
0
  6
Continuous
 62
     7
100
AcDbLine
 10
87.2135514625
 20
76.2390895566
 30
0.0
 11
90.7588689381
 21
76.2390895566
 31
0.0
  0
LINE
  5
6B
330
1F
100
AcDbEntity
  8
0
  6
Continuous
 62
     7
100
AcDbLine
 10
90.7588689381
 20
76.2390895566
 30
0.0
 11
93.5001645639
 21
75.8328675223
 31
0.0
  0
LINE
  5
6C
330
1F
100
AcDbEntity
  8
0
  6
Continuous
 62
     7
100
AcDbLine
 10
93.5001645639
 20
75.8328675223
 30
0.0
 11
95.7727360666
 21
75.6725014908
 31
0.0
  0
LINE
  5
6D
330
1F
100
AcDbEntity
  8
0
  6
Continuous
 62
     7
100
AcDbLine
 10
98.2472466231
 20
77.0387936284
 30
0.0
 11
98.2472466231
 21
78.8567781689
 31
0.0
  0
LINE
  5
6E
330
1F
100
AcDbEntity
  8
0
  6
Continuous
 62
     7
100
AcDbLine
 10
98.2472466231
 20
78.8567781689
 30
0.0
 11
98.2472466231
 21
79.8955390861
 31
0.0
  0
LINE
  5
6F
330
1F
100
AcDbEntity
  8
0
  6
Continuous
 62
     7
100
AcDbLine
 10
98.2472466231
 20
79.8955390861
 30
0.0
 11
98.5243701513
 21
80.5116214122
 31
0.0
  0
LINE
  5
70
330
1F
100
AcDbEntity
  8
0
  6
Continuous
 62
     7
100
AcDbLine
 10
98.5243701513
 20
80.5116214122
 30
0.0
 11
98.8564071929
 21
81.2497837557
 31
0.0
  0
LINE
  5
71
330
1F
100
AcDbEntity
  8
0
  6
Continuous
 62
     7
100
AcDbLine
 10
98.8564071929
 20
81.2497837557
 30
0.0
 11
99.2315541453
 21
81.6289776654
 31
0.0
  0
LINE
  5
72
330
1F
100
AcDbEntity
  8
0
  6
Continuous
 62
     7
100
AcDbLine
 10
64.8565532171
 20
81.2497837557
 30
0.0
 11
64.4814062647
 21
81.6289776654
 31
0.0
  0
LINE
  5
73
330
1F
100
AcDbEntity
  8
0
  6
Continuous
 62
     7
100
AcDbLine
 10
65.1885902587
 20
80.5116214122
 30
0.0
 11
64.8565532171
 21
81.2497837557
 31
0.0
  0
LINE
  5
74
330
1F
100
AcDbEntity
  8
0
  6
Continuous
 62
     7
100
AcDbLine
 10
65.4657137869
 20
79.8955390861
 30
0.0
 11
65.1885902587
 21
80.5116214122
 31
0.0
  0
LINE
  5
75
330
1F
100
AcDbEntity
  8
0
  6
Continuous
 62
     7
100
AcDbLine
 10
65.4657137869
 20
78.8567781689
 30
0.0
 11
65.4657137869
 21
79.8955390861
 31
0.0
  0
LINE
  5
76
330
1F
100
AcDbEntity
  8
0
  6
Continuous
 62
     7
100
AcDbLine
 10
65.4657137869
 20
77.0387936284
 30
0.0
 11
65.4657137869
 21
78.8567781689
 31
0.0
  0
LINE
  5
77
330
1F
100
AcDbEntity
  8
0
  6
Continuous
 62
     7
100
AcDbLine
 10
96.856480205
 20
7.9408067869
 30
0.0
 11
96.856480205
 21
5.9408067869
 31
0.0
  0
LINE
  5
78
330
1F
100
AcDbEntity
  8
0
  6
Continuous
 62
     7
100
AcDbLine
 10
96.856480205
 20
5.9408067869
 30
0.0
 11
101.356480205
 21
5.9408067869
 31
0.0
  0
LINE
  5
79
330
1F
100
AcDbEntity
  8
0
  6
Continuous
 62
     7
100
AcDbLine
 10
101.356480205
 20
5.9408067869
 30
0.0
 11
101.356480205
 21
8.325229306
 31
0.0
  0
LINE
  5
7A
330
1F
100
AcDbEntity
  8
0
  6
Continuous
 62
     7
100
AcDbLine
 10
62.356480205
 20
5.9408067869
 30
0.0
 11
62.356480205
 21
8.325229306
 31
0.0
  0
LINE
  5
7B
330
1F
100
AcDbEntity
  8
0
  6
Continuous
 62
     7
100
AcDbLine
 10
66.856480205
 20
5.9408067869
 30
0.0
 11
62.356480205
 21
5.9408067869
 31
0.0
  0
LINE
  5
7C
330
1F
100
AcDbEntity
  8
0
  6
Continuous
 62
     7
100
AcDbLine
 10
66.856480205
 20
7.9408067869
 30
0.0
 11
66.856480205
 21
5.9408067869
 31
0.0
  0
LINE
  5
7D
330
1F
100
AcDbEntity
  8
0
  6
Continuous
 62
     7
100
AcDbLine
 10
76.856480205
 20
126.4092340037
 30
0.0
 11
76.856480205
 21
136.4092340037
 31
0.0
  0
LINE
  5
7E
330
1F
100
AcDbEntity
  8
0
  6
Continuous
 62
     7
100
AcDbLine
 10
76.856480205
 20
136.4092340037
 30
0.0
 11
86.856480205
 21
136.4092340037
 31
0.0
  0
LINE
  5
7F
330
1F
100
AcDbEntity
  8
0
  6
Continuous
 62
     7
100
AcDbLine
 10
86.856480205
 20
136.4092340037
 30
0.0
 11
86.856480205
 21
126.4092340037
 31
0.0
  0
SPLINE
  5
80
330
1F
100
AcDbEntity
  8
0
  6
Continuous
 62
     7
100
AcDbSpline
210
0.0
220
0.0
230
1.0
 70
     8
 71
     3
 72
    22
 73
    18
 74
     0
 42
0.00000001
 43
0.00000001
 40
0.0
 40
0.0
 40
0.0
 40
0.0
 40
0.071582965732468
 40
0.1411203468684783
 40
0.2111279140546182
 40
0.2808250669284953
 40
0.3904978514474649
 40
0.5001211243273087
 40
0.5631031185532096
 40
0.6247818716240059
 40
0.6867273529386445
 40
0.7490909015402168
 40
0.8108832481543115
 40
0.872398590087335
 40
0.9350009192985068
 40
0.9654393113316765
 40
1.0
 40
1.0
 40
1.0
 40
1.0
 10
81.8564295768738
 20
69.42991332263806
 30
0.0
 10
82.42451263762861
 20
68.39715641775133
 30
0.0
 10
83.54444498135743
 20
66.36115509876257
 30
0.0
 10
84.04973160902433
 20
62.9008447899474
 30
0.0
 10
84.2758413001542
 20
59.50531230431311
 30
0.0
 10
84.70857141776634
 20
55.43043291383383
 30
0.0
 10
86.48888313394282
 20
51.0110707972075
 30
0.0
 10
87.26883882068651
 20
46.45688498717619
 30
0.0
 10
88.80630871080994
 20
42.8879369258802
 30
0.0
 10
88.74532359360784
 20
39.79410494463162
 30
0.0
 10
88.51509234759511
 20
36.75099133436597
 30
0.0
 10
89.30416218871953
 20
33.77844367102961
 30
0.0
 10
89.71513081571321
 20
30.78865723351096
 30
0.0
 10
90.7315492521672
 20
27.84180960013221
 30
0.0
 10
90.14125480740005
 20
25.31177794974012
 30
0.0
 10
90.6243075535575
 20
23.19866555587765
 30
0.0
 10
91.39660969533645
 20
22.43851530286328
 30
0.0
 10
91.80725079351565
 20
22.03433549059442
 30
0.0
  0
SPLINE
  5
81
330
1F
100
AcDbEntity
  8
0
  6
Continuous
 62
     7
100
AcDbSpline
210
0.0
220
0.0
230
1.0
 70
     8
 71
     3
 72
     9
 73
     5
 74
     0
 42
0.00000001
 43
0.00000001
 40
0.0
 40
0.0
 40
0.0
 40
0.0
 40
0.5808374119232371
 40
1.0
 40
1.0
 40
1.0
 40
1.0
 10
91.80724620819092
 20
22.03433549059442
 30
0.0
 10
91.79062628933005
 20
21.46432514277864
 30
0.0
 10
91.76201256969063
 20
20.4829655813682
 30
0.0
 10
92.35328413948197
 20
19.71410837854418
 30
0.0
 10
92.60112306093193
 20
19.39183220354699
 30
0.0
  0
SPLINE
  5
82
330
1F
100
AcDbEntity
  8
0
  6
Continuous
 62
     7
100
AcDbSpline
210
0.0
220
0.0
230
1.0
 70
     8
 71
     3
 72
    25
 73
    21
 74
     0
 42
0.00000001
 43
0.00000001
 40
0.0
 40
0.0
 40
0.0
 40
0.0
 40
0.052849472636717
 40
0.0671793399744195
 40
0.0816230215288735
 40
0.1322182711261494
 40
0.152601812626423
 40
0.1749830493868746
 40
0.2695767882628943
 40
0.3643907456885995
 40
0.4074112291088891
 40
0.4557990165899034
 40
0.5486791989089483
 40
0.641341951596166
 40
0.7364018667515346
 40
0.823250364412547
 40
0.9315134602698639
 40
0.9771966520071478
 40
0.9882370349415441
 40
1.0
 40
1.0
 40
1.0
 40
1.0
 10
92.60112047195436
 20
19.391832203547
 30
0.0
 10
92.7754603585684
 20
19.17019851123167
 30
0.0
 10
92.99707162410465
 20
18.88846996366065
 30
0.0
 10
92.88648443304494
 20
18.47442167337881
 30
0.0
 10
92.55158106837139
 20
18.24286920387942
 30
0.0
 10
92.12955752037908
 20
18.21928043477742
 30
0.0
 10
91.73474701762436
 20
17.90473775761102
 30
0.0
 10
91.80682490651085
 20
17.18619785275499
 30
0.0
 10
91.82752848259778
 20
16.17620187790068
 30
0.0
 10
91.7553997725108
 20
15.07830676740226
 30
0.0
 10
91.81693061812616
 20
14.07196157537181
 30
0.0
 10
92.79858026969342
 20
13.73236902116579
 30
0.0
 10
93.04633532544105
 20
12.48688740914843
 30
0.0
 10
93.48460688540774
 20
11.2231175214073
 30
0.0
 10
93.48880931566174
 20
9.832826020168888
 30
0.0
 10
94.433004783091
 20
8.619637174000093
 30
0.0
 10
95.61503707549939
 20
8.342964109002157
 30
0.0
 10
96.42846981425791
 20
8.20853072494403
 30
0.0
 10
96.7046385288864
 20
8.015157670913736
 30
0.0
 10
96.80480826856657
 20
7.966108497552066
 30
0.0
 10
96.85648020499194
 20
7.940806786918156
 30
0.0
  0
SPLINE
  5
83
330
1F
100
AcDbEntity
  8
0
  6
Continuous
 62
     7
100
AcDbSpline
210
0.0
220
0.0
230
1.0
 70
     8
 71
     3
 72
    18
 73
    14
 74
     0
 42
0.00000001
 43
0.00000001
 40
0.0
 40
0.0
 40
0.0
 40
0.0
 40
0.1665330231213098
 40
0.3332563799098689
 40
0.4999315112337684
 40
0.583307723461501
 40
0.6671800618184395
 40
0.749993862281424
 40
0.8198600662743734
 40
0.8757683677883898
 40
0.9096404214753034
 40
0.945502194370111
 40
1.0
 40
1.0
 40
1.0
 40
1.0
 10
105.5416464805603
 20
97.96677250593122
 30
0.0
 10
105.444133908685
 20
100.264185580614
 30
0.0
 10
105.2489973160155
 20
104.8616374858057
 30
0.0
 10
103.9415633568405
 20
111.6376510809516
 30
0.0
 10
102.7963700831472
 20
117.2842253269602
 30
0.0
 10
101.2815607952417
 20
121.6259470083752
 30
0.0
 10
99.48725501389141
 20
124.6811590717062
 30
0.0
 10
96.56892832485717
 20
126.3771691589276
 30
0.0
 10
93.97884457602751
 20
127.4143370546532
 30
0.0
 10
91.90229659570284
 20
128.6190883292185
 30
0.0
 10
90.19409967993391
 20
127.9352229969706
 30
0.0
 10
88.81436484932614
 20
126.9300155367071
 30
0.0
 10
87.59306962647977
 20
126.6051608522126
 30
0.0
 10
86.85648020499188
 20
126.409234003697
 30
0.0
  0
SPLINE
  5
84
330
1F
100
AcDbEntity
  8
0
  6
Continuous
 62
     7
100
AcDbSpline
210
0.0
220
0.0
230
1.0
 70
     8
 71
     3
 72
    18
 73
    14
 74
     0
 42
0.00000001
 43
0.00000001
 40
0.0
 40
0.0
 40
0.0
 40
0.0
 40
0.1665331196002511
 40
0.3332564570895725
 40
0.4999315691198161
 40
0.5833077716962477
 40
0.6671801003444562
 40
0.7499938912212407
 40
0.8198600871267554
 40
0.8757683821690451
 40
0.9096404319350552
 40
0.9455022006786945
 40
1.0
 40
1.0
 40
1.0
 40
1.0
 10
58.17124247550964
 20
97.96677250593122
 30
0.0
 10
58.26878516825555
 20
100.264185160331
 30
0.0
 10
58.46398196921326
 20
104.8616346257338
 30
0.0
 10
59.77139179970278
 20
111.6376514346311
 30
0.0
 10
60.91659097888223
 20
117.2842252830623
 30
0.0
 10
62.4313994909625
 20
121.6259470167085
 30
0.0
 10
64.2257054290824
 20
124.6811590694854
 30
0.0
 10
67.14403207778172
 20
126.3771691594217
 30
0.0
 10
69.73411583540442
 20
127.4143370545565
 30
0.0
 10
71.81066381408114
 20
128.6190883292303
 30
0.0
 10
73.51886073009534
 20
127.93522299697
 30
0.0
 10
74.8985955606353
 20
126.9300155367021
 30
0.0
 10
76.1198907834963
 20
126.6051608522191
 30
0.0
 10
76.8564802049919
 20
126.4092340037108
 30
0.0
  0
SPLINE
  5
85
330
1F
100
AcDbEntity
  8
0
  6
Continuous
 62
     7
100
AcDbSpline
210
0.0
220
0.0
230
1.0
 70
     8
 71
     3
 72
    25
 73
    21
 74
     0
 42
0.00000001
 43
0.00000001
 40
0.0
 40
0.0
 40
0.0
 40
0.0
 40
0.0528483287772886
 40
0.0671782134209553
 40
0.081621912418826
 40
0.1322172231192283
 40
0.1526007892363967
 40
0.1749820530263304
 40
0.2695759061417844
 40
0.364389978072878
 40
0.4074105134483576
 40
0.4557983593665744
 40
0.5486786538556162
 40
0.641341518450245
 40
0.7364015484080415
 40
0.8232501509546776
 40
0.9315133775597074
 40
0.9771966244678911
 40
0.98823702073559
 40
0.9999999999999999
 40
0.9999999999999999
 40
0.9999999999999999
 40
0.9999999999999999
 10
71.11179828643799
 20
19.39183220354699
 30
0.0
 10
70.93747863917436
 20
19.17019601869221
 30
0.0
 10
70.71589202067048
 20
18.88846292944493
 30
0.0
 10
70.82647578095977
 20
18.47442178469867
 30
0.0
 10
71.16137955236019
 20
18.24286908417059
 30
0.0
 10
71.58340285931506
 20
18.21928045198257
 30
0.0
 10
71.97821339772096
 20
17.90473775456555
 30
0.0
 10
71.90613549627196
 20
17.18619785684525
 30
0.0
 10
71.88543193031917
 20
16.17620187623454
 30
0.0
 10
71.95756063714846
 20
15.07830676758661
 30
0.0
 10
71.89602979192237
 20
14.071961575335
 30
0.0
 10
70.91438014025296
 20
13.73236902118702
 30
0.0
 10
70.66662508455529
 20
12.48688740914129
 30
0.0
 10
70.22835352457253
 20
11.22311752140925
 30
0.0
 10
70.22415109432296
 20
9.832826020168373
 30
0.0
 10
69.27995562689249
 20
8.619637174000244
 30
0.0
 10
68.09792333448442
 20
8.342964109002141
 30
0.0
 10
67.28449059572586
 20
8.208530724944023
 30
0.0
 10
67.00832188109739
 20
8.01515767091373
 30
0.0
 10
66.90815214141728
 20
7.96610849755206
 30
0.0
 10
66.85648020499193
 20
7.94080678691815
 30
0.0
  0
SPLINE
  5
86
330
1F
100
AcDbEntity
  8
0
  6
Continuous
 62
     7
100
AcDbSpline
210
0.0
220
0.0
230
1.0
 70
     8
 71
     3
 72
     9
 73
     5
 74
     0
 42
0.00000001
 43
0.00000001
 40
0.0
 40
0.0
 40
0.0
 40
0.0
 40
0.5808368159035701
 40
1.0
 40
1.0
 40
1.0
 40
1.0
 10
71.90567255020142
 20
22.03433549059442
 30
0.0
 10
71.92231010512133
 20
21.46432483753712
 30
0.0
 10
71.95095421731324
 20
20.48296374359447
 30
0.0
 10
71.35967840233667
 20
19.71410815864481
 30
0.0
 10
71.11183734905191
 20
19.39183220354699
 30
0.0
  0
SPLINE
  5
87
330
1F
100
AcDbEntity
  8
0
  6
Continuous
 62
     7
100
AcDbSpline
210
0.0
220
0.0
230
1.0
 70
     8
 71
     3
 72
    22
 73
    18
 74
     0
 42
0.00000001
 43
0.00000001
 40
0.0
 40
0.0
 40
0.0
 40
0.0
 40
0.0715821437861216
 40
0.1411195864849801
 40
0.2111272156502326
 40
0.2808244302284064
 40
0.3904973118429064
 40
0.500120681774447
 40
0.5631027317595791
 40
0.6247815394358208
 40
0.6867270755920447
 40
0.7490906794053263
 40
0.8108830807254329
 40
0.8723984771192304
 40
0.9350008617535082
 40
0.9654392807344012
 40
1.0
 40
1.0
 40
1.0
 40
1.0
 10
81.85642957687378
 20
69.42991332263804
 30
0.0
 10
81.28838895775527
 20
68.39715244256267
 30
0.0
 10
80.16853345976696
 20
66.36113087872741
 30
0.0
 10
79.6632234327348
 20
62.90084737681708
 30
0.0
 10
79.43712052392408
 20
59.50531162288143
 30
0.0
 10
79.00438836594562
 20
55.43043321562514
 30
0.0
 10
77.22407747802752
 20
51.01107069987311
 30
0.0
 10
76.44412156004687
 20
46.45688500127156
 30
0.0
 10
74.90665170500206
 20
42.88793692307168
 30
0.0
 10
74.96763681482098
 20
39.79410494538094
 30
0.0
 10
75.19786806280946
 20
36.75099133416324
 30
0.0
 10
74.40879822115232
 20
33.77844367108356
 30
0.0
 10
73.99782959430038
 20
30.7886572334966
 30
0.0
 10
72.98141115780831
 20
27.84180960013622
 30
0.0
 10
73.57170560258479
 20
25.31177794973961
 30
0.0
 10
73.08865285642608
 20
23.19866555587776
 30
0.0
 10
72.3163507146473
 20
22.4385153028633
 30
0.0
 10
71.90570961646819
 20
22.03433549059442
 30
0.0
  0
SPLINE
  5
88
330
1F
100
AcDbEntity
  8
0
  6
Continuous
 62
     7
100
AcDbSpline
210
0.0
220
0.0
230
1.0
 70
     8
 71
     3
 72
    30
 73
    26
 74
     0
 42
0.00000001
 43
0.00000001
 40
0.0
 40
0.0
 40
0.0
 40
0.0
 40
0.0605614404443529
 40
0.0889646798742283
 40
0.1009622255229322
 40
0.1071643064023731
 40
0.1105824451362488
 40
0.114830455158102
 40
0.1320880328854104
 40
0.151135985246755
 40
0.1880079349443179
 40
0.2360202983438015
 40
0.3168658870806101
 40
0.4208060499537984
 40
0.5028205505434814
 40
0.5649339284184846
 40
0.5992421637202895
 40
0.6290630291728925
 40
0.6519852268724781
 40
0.6769580104205527
 40
0.7233633862256915
 40
0.8165708669366707
 40
0.9092201986553967
 40
0.9563555532333684
 40
1.0
 40
1.0
 40
1.0
 40
1.0
 10
98.52433204650879
 20
70.31074942352765
 30
0.0
 10
98.56768568453566
 20
70.06158103609017
 30
0.0
 10
98.63137212429248
 20
69.69555298820183
 30
0.0
 10
98.62495067865225
 20
69.26914783585538
 30
0.0
 10
98.61551063935948
 20
69.07984399866459
 30
0.0
 10
98.61987056146832
 20
68.98270709964723
 30
0.0
 10
98.67317683554711
 20
68.9447366143524
 30
0.0
 10
98.77912657961133
 20
68.98222032899662
 30
0.0
 10
98.9016768319899
 20
69.09787893229893
 30
0.0
 10
99.11186985484254
 20
69.32007187635381
 30
0.0
 10
99.3857102247121
 20
69.65868322776535
 30
0.0
 10
99.7890249770736
 20
70.20905728797737
 30
0.0
 10
100.5243407182918
 20
70.95690074653311
 30
0.0
 10
100.22802907452
 20
72.16313199245512
 30
0.0
 10
100.4716656658541
 20
73.14823121010606
 30
0.0
 10
100.6388341301976
 20
73.92135827666505
 30
0.0
 10
100.3888641318642
 20
74.39845043842568
 30
0.0
 10
100.023340044795
 20
74.63096964130133
 30
0.0
 10
99.73200816203064
 20
74.4048960123261
 30
0.0
 10
99.54851560572665
 20
74.05215245579475
 30
0.0
 10
99.59402839265081
 20
73.34114513571292
 30
0.0
 10
99.44192728626129
 20
72.40448425674411
 30
0.0
 10
99.29568774895965
 20
71.38997558474327
 30
0.0
 10
98.73715641054183
 20
70.83459427771285
 30
0.0
 10
98.59345693207564
 20
70.48082974142936
 30
0.0
 10
98.52437015125639
 20
70.31074942352764
 30
0.0
  0
SPLINE
  5
89
330
1F
100
AcDbEntity
  8
0
  6
Continuous
 62
     7
100
AcDbSpline
210
0.0
220
0.0
230
1.0
 70
     8
 71
     3
 72
    30
 73
    26
 74
     0
 42
0.00000001
 43
0.00000001
 40
0.0
 40
0.0
 40
0.0
 40
0.0
 40
0.0605610370188093
 40
0.0889642886459617
 40
0.1009618394468028
 40
0.1071639229896195
 40
0.1105820631913544
 40
0.1148300750374416
 40
0.1320876601757183
 40
0.1511356207168731
 40
0.1880075862484548
 40
0.2360199702660118
 40
0.3168655937205519
 40
0.4208058012290348
 40
0.5028203370384181
 40
0.5649337415869309
 40
0.5992419916218106
 40
0.6290628698804644
 40
0.6519850774235899
 40
0.6769578716957916
 40
0.7233632674289117
 40
0.8165707881662218
 40
0.9092201596715926
 40
0.9563555344910196
 40
1.0
 40
1.0
 40
1.0
 40
1.0
 10
65.18858671188356
 20
70.31074942352767
 30
0.0
 10
65.14525199383131
 20
70.061580379475
 30
0.0
 10
65.08159320337838
 20
69.69555053837675
 30
0.0
 10
65.08800938695597
 20
69.26914788065284
 30
0.0
 10
65.09744979883578
 20
69.07984399499475
 30
0.0
 10
65.09308984580294
 20
68.98270710000011
 30
0.0
 10
65.03978357510668
 20
68.94473661426521
 30
0.0
 10
64.93383382947509
 20
68.98222032911339
 30
0.0
 10
64.81128357837716
 20
69.09787893224903
 30
0.0
 10
64.60109055492086
 20
69.3200718763825
 30
0.0
 10
64.32725018536907
 20
69.65868322775266
 30
0.0
 10
63.92393543285918
 20
70.20905728798402
 30
0.0
 10
63.1886196917139
 20
70.95690074653025
 30
0.0
 10
63.48493133545881
 20
72.16313199245579
 30
0.0
 10
63.24129474413063
 20
73.14823121010599
 30
0.0
 10
63.07412627978614
 20
73.92135827666502
 30
0.0
 10
63.32409627811965
 20
74.39845043842573
 30
0.0
 10
63.68962036518879
 20
74.6309696413013
 30
0.0
 10
63.98095224795316
 20
74.40489601232615
 30
0.0
 10
64.16444480425713
 20
74.05215245579475
 30
0.0
 10
64.11893201733297
 20
73.34114513571294
 30
0.0
 10
64.27103312372248
 20
72.40448425674411
 30
0.0
 10
64.41727266102421
 20
71.38997558474328
 30
0.0
 10
64.975803999442
 20
70.83459427771284
 30
0.0
 10
65.11950347790815
 20
70.48082974142939
 30
0.0
 10
65.1885902587274
 20
70.31074942352764
 30
0.0
  0
SPLINE
  5
8A
330
1F
100
AcDbEntity
  8
0
  6
Continuous
 62
     7
100
AcDbSpline
210
0.0
220
0.0
230
1.0
 70
     8
 71
     3
 72
    51
 73
    47
 74
     0
 42
0.00000001
 43
0.00000001
 40
0.0
 40
0.0
 40
0.0
 40
0.0
 40
0.0195392363922216
 40
0.0396213960232903
 40
0.0704239061555461
 40
0.1253722662781466
 40
0.187837713311181
 40
0.2191716757508996
 40
0.2348109631737337
 40
0.2430369292628269
 40
0.2507192157027716
 40
0.2599782707177304
 40
0.2672157021870625
 40
0.2801488087766915
 40
0.3032275205655219
 40
0.3443755802542751
 40
0.3704876258388549
 40
0.3913975146533473
 40
0.4038267452744321
 40
0.4173240112549518
 40
0.4375083806280484
 40
0.4539139828725721
 40
0.4686398537065926
 40
0.4866719069255694
 40
0.5002339225491838
 40
0.54687203163939
 40
0.5936633370769424
 40
0.6404615136691503
 40
0.6756742710398614
 40
0.7109225392869953
 40
0.7452993652164569
 40
0.7595357181940329
 40
0.7676379853162675
 40
0.772501148270351
 40
0.7812589269728571
 40
0.8048858206811856
 40
0.8284086435234811
 40
0.8514495314219976
 40
0.8748823658348104
 40
0.9061308839906664
 40
0.9373256300287474
 40
0.9685878860290396
 40
0.984260932416174
 40
0.992151555104672
 40
0.9958246104738561
 40
1.0
 40
1.0
 40
1.0
 40
1.0
 10
71.90567255020142
 20
98.61272507606031
 30
0.0
 10
72.44794078011707
 20
98.71998669680626
 30
0.0
 10
73.54754487195815
 20
98.93749034271981
 30
0.0
 10
75.46671093204789
 20
98.29424035257311
 30
0.0
 10
78.42704149187895
 20
98.85421191961393
 30
0.0
 10
82.54335178676128
 20
98.524443047048
 30
0.0
 10
86.69894622069177
 20
98.52772082196834
 30
0.0
 10
89.72332018285549
 20
98.60042181482453
 30
0.0
 10
91.28332757563543
 20
98.83027790041936
 30
0.0
 10
92.12319619122619
 20
98.51298412806482
 30
0.0
 10
92.63214400016071
 20
97.92881854113385
 30
0.0
 10
92.44378768825591
 20
97.21705624588925
 30
0.0
 10
92.67056571586748
 20
96.42341016289174
 30
0.0
 10
92.9573627461586
 20
95.25641562240992
 30
0.0
 10
93.61683638347989
 20
93.2103262468304
 30
0.0
 10
94.23924753576873
 20
90.76269588681835
 30
0.0
 10
95.22852542127258
 20
88.521403326407
 30
0.0
 10
96.51595850903324
 20
87.26858826367618
 30
0.0
 10
96.3684391373227
 20
85.88112238096026
 30
0.0
 10
95.81083162289087
 20
84.7342720932026
 30
0.0
 10
95.5502490764161
 20
83.32700265900553
 30
0.0
 10
95.18418585441567
 20
82.02127494609064
 30
0.0
 10
94.71106764024016
 20
80.48162124369316
 30
0.0
 10
93.15324776137416
 20
80.78701486492548
 30
0.0
 10
91.09647688703025
 20
81.11498381824214
 30
0.0
 10
88.04623144849624
 20
81.22981721569923
 30
0.0
 10
84.17123131168076
 20
81.22088104955704
 30
0.0
 10
80.56870366869113
 20
80.66336478591386
 30
0.0
 10
77.35506466378898
 20
81.51869433361453
 30
0.0
 10
74.42818877716219
 20
81.1729859720477
 30
0.0
 10
72.08791180297922
 20
81.26647890500686
 30
0.0
 10
70.52797216793898
 20
80.93451001709103
 30
0.0
 10
69.84044052841926
 20
80.60417251921437
 30
0.0
 10
69.17311109135905
 20
80.6970610984465
 30
0.0
 10
68.8839298345951
 20
81.86062158836774
 30
0.0
 10
68.72434922787312
 20
83.32601534258536
 30
0.0
 10
67.74615486338809
 20
85.07170691931285
 30
0.0
 10
67.57638792639881
 20
87.15769801768433
 30
0.0
 10
68.97735267526068
 20
88.92735492432111
 30
0.0
 10
69.77331925918907
 20
91.17639542294503
 30
0.0
 10
70.7555839498165
 20
93.61848512874992
 30
0.0
 10
70.89075336414624
 20
95.80682255103413
 30
0.0
 10
71.5558795734888
 20
97.24597363992521
 30
0.0
 10
71.45438335610409
 20
98.0075032756713
 30
0.0
 10
71.5964083064457
 20
98.45151736683775
 30
0.0
 10
71.79830182915002
 20
98.55674418369044
 30
0.0
 10
71.90570961646822
 20
98.61272507606033
 30
0.0
  0
SPLINE
  5
8B
330
1F
100
AcDbEntity
  8
0
  6
Continuous
 62
     7
100
AcDbSpline
210
0.0
220
0.0
230
1.0
 70
     8
 71
     3
 72
    33
 73
    29
 74
     0
 42
0.00000001
 43
0.00000001
 40
0.0
 40
0.0
 40
0.0
 40
0.0
 40
0.0088908565686485
 40
0.0161048550397321
 40
0.0425343835582235
 40
0.0630720480580309
 40
0.0924330154590298
 40
0.1219525333917741
 40
0.1450557720917225
 40
0.1681518718705777
 40
0.2137503122274844
 40
0.2323349139530399
 40
0.2502798891244138
 40
0.266428739766291
 40
0.283325973421709
 40
0.3090514954102253
 40
0.3553126506972222
 40
0.3963223823751473
 40
0.4373357840913326
 40
0.4635520630210866
 40
0.4841210066332913
 40
0.5100463947431018
 40
0.5309866299002514
 40
0.6247138603319065
 40
0.7185511704722982
 40
0.8123077429060543
 40
0.9062389416544387
 40
1.0
 40
1.0
 40
1.0
 40
1.0
 10
98.03807735443115
 20
70.50169648950293
 30
0.0
 10
97.88746402588423
 20
70.53849310774284
 30
0.0
 10
97.61464376334024
 20
70.60514632592611
 30
0.0
 10
97.28589124372402
 20
71.28319275886531
 30
0.0
 10
97.45750972608197
 20
72.19713623772934
 30
0.0
 10
97.64022124477687
 20
73.43311738728308
 30
0.0
 10
97.84773757167493
 20
74.7261544068834
 30
0.0
 10
97.69028685543206
 20
76.12772955765848
 30
0.0
 10
98.37008751452335
 20
77.22653768161746
 30
0.0
 10
98.87933620537142
 20
78.63488301786515
 30
0.0
 10
99.44945325115916
 20
80.03234033915825
 30
0.0
 10
99.04359204695406
 20
81.43042132112949
 30
0.0
 10
99.61559750006406
 20
82.18232899463831
 30
0.0
 10
99.63670296765554
 20
83.04609741126161
 30
0.0
 10
99.51851629121225
 20
84.00432364240957
 30
0.0
 10
99.6445849174265
 20
85.48540807392877
 30
0.0
 10
99.02690609682834
 20
87.28150175315871
 30
0.0
 10
98.40530527306169
 20
89.30382964030348
 30
0.0
 10
98.26249179548809
 20
91.09437160206849
 30
0.0
 10
97.97998720253271
 20
92.51517790756688
 30
0.0
 10
98.24263261073133
 20
93.76307825184212
 30
0.0
 10
97.37751602638362
 20
94.6824987687906
 30
0.0
 10
97.65663900940224
 20
97.08101415729121
 30
0.0
 10
96.86395505411178
 20
100.4324125434745
 30
0.0
 10
97.08237962993906
 20
105.110425124651
 30
0.0
 10
96.6480597277766
 20
109.7231614833955
 30
0.0
 10
96.38582631191228
 20
114.4031177589674
 30
0.0
 10
97.14513179382863
 20
117.4238753497127
 30
0.0
 10
97.52444038489332
 20
118.9328850078569
 30
0.0
  0
SPLINE
  5
8C
330
1F
100
AcDbEntity
  8
0
  6
Continuous
 62
     7
100
AcDbSpline
210
0.0
220
0.0
230
1.0
 70
     8
 71
     3
 72
    12
 73
     8
 74
     0
 42
0.00000001
 43
0.00000001
 40
0.0
 40
0.0
 40
0.0
 40
0.0
 40
0.1869697319139107
 40
0.3736806237933222
 40
0.5603345187370549
 40
0.7804551659673273
 40
1.0
 40
1.0
 40
1.0
 40
1.0
 10
96.68421745300293
 20
109.6527539773204
 30
0.0
 10
96.78287898853529
 20
110.4459161068597
 30
0.0
 10
96.98006547302528
 20
112.0311423159445
 30
0.0
 10
97.73939468143799
 20
114.3060875115946
 30
0.0
 10
98.31026402075081
 20
116.7699684596361
 30
0.0
 10
98.92932571741125
 20
119.3749303302702
 30
0.0
 10
99.65111327249082
 20
121.1085486077967
 30
0.0
 10
100.0115344011444
 20
121.9742225195223
 30
0.0
  0
SPLINE
  5
8D
330
1F
100
AcDbEntity
  8
0
  6
Continuous
 62
     7
100
AcDbSpline
210
0.0
220
0.0
230
1.0
 70
     8
 71
     3
 72
    12
 73
     8
 74
     0
 42
0.00000001
 43
0.00000001
 40
0.0
 40
0.0
 40
0.0
 40
0.0
 40
0.1869687273660014
 40
0.3736798499379753
 40
0.5603339755038479
 40
0.7804548947064501
 40
1.0
 40
1.0
 40
1.0
 40
1.0
 10
67.02864170074463
 20
109.6527539773204
 30
0.0
 10
66.93002249317074
 20
110.4459174466015
 30
0.0
 10
66.7329199551881
 20
112.0311515675837
 30
0.0
 10
65.97355862448251
 20
114.3060863843962
 30
0.0
 10
65.4026986663276
 20
116.7699688209417
 30
0.0
 10
64.7836340866405
 20
119.3749302341273
 30
0.0
 10
64.06184693569207
 20
121.1085485757771
 30
0.0
 10
63.70142600883945
 20
121.9742225195223
 30
0.0
  0
SPLINE
  5
8E
330
1F
100
AcDbEntity
  8
0
  6
Continuous
 62
     7
100
AcDbSpline
210
0.0
220
0.0
230
1.0
 70
     8
 71
     3
 72
    33
 73
    29
 74
     0
 42
0.00000001
 43
0.00000001
 40
0.0
 40
0.0
 40
0.0
 40
0.0
 40
0.0088927298826517
 40
0.0161067147184215
 40
0.042536193281965
 40
0.0630738189631469
 40
0.0924347308684295
 40
0.121954193005779
 40
0.1450573880378621
 40
0.1681534441623452
 40
0.2137517983327838
 40
0.2323363649312346
 40
0.2502813061844738
 40
0.2664301263031052
 40
0.2833273280207445
 40
0.3090528013849685
 40
0.3553138692328872
 40
0.3963235233975484
 40
0.4373368475935324
 40
0.4635530769714056
 40
0.484121981705864
 40
0.5100473208136115
 40
0.5309875163912291
 40
0.6247145696672858
 40
0.7185517024440161
 40
0.8123080976667145
 40
0.9062391188739759
 40
1.0
 40
1.0
 40
1.0
 40
1.0
 10
65.6747817993164
 20
70.50169648950293
 30
0.0
 10
65.82543487050485
 20
70.53848384219877
 30
0.0
 10
66.09830114116718
 20
70.60511393250142
 30
0.0
 10
66.42707008746609
 20
71.28319508386782
 30
0.0
 10
66.25545041594856
 20
72.19713556145066
 30
0.0
 10
66.07273926085543
 20
73.43311762868734
 30
0.0
 10
65.8652228085337
 20
74.72615433173458
 30
0.0
 10
66.0226735606288
 20
76.1277295729962
 30
0.0
 10
65.34287289403225
 20
77.22653767801283
 30
0.0
 10
64.83362420543871
 20
78.63488301995062
 30
0.0
 10
64.26350715871865
 20
80.0323403388908
 30
0.0
 10
64.66936836304669
 20
81.43042132117223
 30
0.0
 10
64.0973629099158
 20
82.18232899462835
 30
0.0
 10
64.07625744232931
 20
83.04609741126424
 30
0.0
 10
64.19444411877109
 20
84.00432364240844
 30
0.0
 10
64.06837549255755
 20
85.48540807392946
 30
0.0
 10
64.68605431315537
 20
87.28150175315851
 30
0.0
 10
65.30765513692211
 20
89.30382964030355
 30
0.0
 10
65.45046861449568
 20
91.09437160206849
 30
0.0
 10
65.732973207451
 20
92.51517790756691
 30
0.0
 10
65.47032779925244
 20
93.76307825184215
 30
0.0
 10
66.3354443836002
 20
94.68249876879058
 30
0.0
 10
66.05632140058145
 20
97.0810141572912
 30
0.0
 10
66.84900535587208
 20
100.4324125434745
 30
0.0
 10
66.6305807800447
 20
105.110425124651
 30
0.0
 10
67.0649006822072
 20
109.7231614833955
 30
0.0
 10
67.32713409807151
 20
114.4031177589674
 30
0.0
 10
66.56782861615518
 20
117.4238753497127
 30
0.0
 10
66.18852002509045
 20
118.9328850078569
 30
0.0
  0
SPLINE
  5
8F
330
1F
100
AcDbEntity
  8
0
  6
Continuous
 62
     7
100
AcDbSpline
210
0.0
220
0.0
230
1.0
 70
     8
 71
     3
 72
     9
 73
     5
 74
     0
 42
0.00000001
 43
0.00000001
 40
0.0
 40
0.0
 40
0.0
 40
0.0
 40
0.557513107630841
 40
1.0
 40
1.0
 40
1.0
 40
1.0
 10
99.2315411567688
 20
77.72034041132464
 30
0.0
 10
100.0745051482088
 20
77.65305470100614
 30
0.0
 10
101.5865126327003
 20
77.53236568150587
 30
0.0
 10
102.851902871505
 20
76.70880866035917
 30
0.0
 10
103.411821465908
 20
76.34439547338317
 30
0.0
  0
SPLINE
  5
90
330
1F
100
AcDbEntity
  8
0
  6
Continuous
 62
     7
100
AcDbSpline
210
0.0
220
0.0
230
1.0
 70
     8
 71
     3
 72
    10
 73
     6
 74
     0
 42
0.00000001
 43
0.00000001
 40
0.0
 40
0.0
 40
0.0
 40
0.0
 40
0.2811661678926007
 40
0.5608062001429223
 40
0.9999999999999999
 40
0.9999999999999999
 40
0.9999999999999999
 40
0.9999999999999999
 10
99.82055425643921
 20
81.5424096833843
 30
0.0
 10
100.2728338409192
 20
81.55792330956217
 30
0.0
 10
101.1749380914966
 20
81.58886635584847
 30
0.0
 10
102.6979805434669
 20
81.04605448290346
 30
0.0
 10
103.7408308489298
 20
80.57770392945244
 30
0.0
 10
104.3779925515108
 20
80.29155064889206
 30
0.0
  0
SPLINE
  5
91
330
1F
100
AcDbEntity
  8
0
  6
Continuous
 62
     7
100
AcDbSpline
210
0.0
220
0.0
230
1.0
 70
     8
 71
     3
 72
    11
 73
     7
 74
     0
 42
0.00000001
 43
0.00000001
 40
0.0
 40
0.0
 40
0.0
 40
0.0
 40
0.2498214652643084
 40
0.499012972233606
 40
0.7805718826804803
 40
1.0
 40
1.0
 40
1.0
 40
1.0
 10
99.82055425643921
 20
68.11652271316748
 30
0.0
 10
100.2127216464668
 20
68.46166131855485
 30
0.0
 10
100.9960675239067
 20
69.15106821609538
 30
0.0
 10
102.2094008312705
 20
70.32598888096106
 30
0.0
 10
102.5644420554855
 20
71.91232347931695
 30
0.0
 10
102.9654109410394
 20
72.88315162788979
 30
0.0
 10
103.1410319507352
 20
73.30836621644289
 30
0.0
  0
SPLINE
  5
92
330
1F
100
AcDbEntity
  8
0
  6
Continuous
 62
     7
100
AcDbSpline
210
0.0
220
0.0
230
1.0
 70
     8
 71
     3
 72
    11
 73
     7
 74
     0
 42
0.00000001
 43
0.00000001
 40
0.0
 40
0.0
 40
0.0
 40
0.0
 40
0.2498177741526237
 40
0.4990105072216297
 40
0.7805708030259054
 40
1.0
 40
1.0
 40
1.0
 40
1.0
 10
63.89236450195314
 20
68.1165227131675
 30
0.0
 10
63.5002126638669
 20
68.46166331107294
 30
0.0
 10
62.716890146904
 20
69.1510809692351
 30
0.0
 10
61.50355806862026
 20
70.3259872361004
 30
0.0
 10
61.14851865111182
 20
71.91232380240177
 30
0.0
 10
60.74754955928862
 20
72.88315172629677
 30
0.0
 10
60.57192845924867
 20
73.30836621644288
 30
0.0
  0
SPLINE
  5
93
330
1F
100
AcDbEntity
  8
0
  6
Continuous
 62
     7
100
AcDbSpline
210
0.0
220
0.0
230
1.0
 70
     8
 71
     3
 72
     9
 73
     5
 74
     0
 42
0.00000001
 43
0.00000001
 40
0.0
 40
0.0
 40
0.0
 40
0.0
 40
0.5575090370826319
 40
1.0
 40
1.0
 40
1.0
 40
1.0
 10
64.48137760162354
 20
77.72034041132464
 30
0.0
 10
63.6384282126649
 20
77.65305232330057
 30
0.0
 10
62.12643588089988
 20
77.53235815773833
 30
0.0
 10
60.8610574599963
 20
76.70880867639353
 30
0.0
 10
60.30113894407581
 20
76.34439547338317
 30
0.0
  0
SPLINE
  5
94
330
1F
100
AcDbEntity
  8
0
  6
Continuous
 62
     7
100
AcDbSpline
210
0.0
220
0.0
230
1.0
 70
     8
 71
     3
 72
    10
 73
     6
 74
     0
 42
0.00000001
 43
0.00000001
 40
0.0
 40
0.0
 40
0.0
 40
0.0
 40
0.2811599128043073
 40
0.5608023784029477
 40
1.0
 40
1.0
 40
1.0
 40
1.0
 10
63.89236450195312
 20
81.5424096833843
 30
0.0
 10
63.44009898746478
 20
81.55792192595247
 30
0.0
 10
62.53800887915249
 20
81.58886269001736
 30
0.0
 10
61.01497994493674
 20
81.0460540379153
 30
0.0
 10
59.9721295907955
 20
80.57770376068612
 30
0.0
 10
59.33496785847299
 20
80.29155064889206
 30
0.0
  0
SPLINE
  5
95
330
1F
100
AcDbEntity
  8
0
  6
Continuous
 62
     7
100
AcDbSpline
210
0.0
220
0.0
230
1.0
 70
     8
 71
     3
 72
     9
 73
     5
 74
     0
 42
0.00000001
 43
0.00000001
 40
0.0
 40
0.0
 40
0.0
 40
0.0
 40
0.5597760150248918
 40
1.0
 40
1.0
 40
1.0
 40
1.0
 10
92.89306402206421
 20
21.80605389477939
 30
0.0
 10
93.74579018995361
 20
21.71490572290455
 30
0.0
 10
95.2691247827219
 20
21.5520760027516
 30
0.0
 10
96.80023708693007
 20
21.58672331878747
 30
0.0
 10
97.474269446933
 20
21.60197589832147
 30
0.0
  0
SPLINE
  5
96
330
1F
100
AcDbEntity
  8
0
  6
Continuous
 62
     7
100
AcDbSpline
210
0.0
220
0.0
230
1.0
 70
     8
 71
     3
 72
     9
 73
     5
 74
     0
 42
0.00000001
 43
0.00000001
 40
0.0
 40
0.0
 40
0.0
 40
0.0
 40
0.5602055375461938
 40
1.0
 40
1.0
 40
1.0
 40
1.0
 10
93.35029125213623
 20
19.39183220354699
 30
0.0
 10
94.11794753041717
 20
19.30165109473667
 30
0.0
 10
95.48825936568285
 20
19.1406724846263
 30
0.0
 10
96.86762991685546
 20
19.13299033295061
 30
0.0
 10
97.47426944693301
 20
19.12961176518392
 30
0.0
  0
SPLINE
  5
97
330
1F
100
AcDbEntity
  8
0
  6
Continuous
 62
     7
100
AcDbSpline
210
0.0
220
0.0
230
1.0
 70
     8
 71
     3
 72
    15
 73
    11
 74
     0
 42
0.00000001
 43
0.00000001
 40
0.0
 40
0.0
 40
0.0
 40
0.0
 40
0.1246664899564625
 40
0.1870519570698903
 40
0.2460237572566927
 40
0.3574747701695429
 40
0.4402756104744508
 40
0.6248431066696382
 40
0.8117488349452499
 40
1.0
 40
1.0
 40
1.0
 40
1.0
 10
92.48870611190796
 20
17.53818512361139
 30
0.0
 10
92.49255791035404
 20
17.20271580041279
 30
0.0
 10
92.49833722152123
 20
16.69937128928455
 30
0.0
 10
93.07345481636884
 20
16.30084758333859
 30
0.0
 10
93.70760937122819
 20
16.51430075889337
 30
0.0
 10
93.84152951424498
 20
17.2081952915368
 30
0.0
 10
94.34616399820243
 20
18.01915040153026
 30
0.0
 10
95.46249649696831
 20
18.56487028533044
 30
0.0
 10
96.8983274137633
 20
18.44594362660188
 30
0.0
 10
97.77847860305388
 20
18.10298437149044
 30
0.0
 10
98.22013245442635
 20
17.93088976123844
 30
0.0
  0
SPLINE
  5
98
330
1F
100
AcDbEntity
  8
0
  6
Continuous
 62
     7
100
AcDbSpline
210
0.0
220
0.0
230
1.0
 70
     8
 71
     3
 72
    12
 73
     8
 74
     0
 42
0.00000001
 43
0.00000001
 40
0.0
 40
0.0
 40
0.0
 40
0.0
 40
0.2503431551910423
 40
0.5009941908839359
 40
0.7515069138783188
 40
0.8925084174540986
 40
1.0
 40
1.0
 40
1.0
 40
1.0
 10
93.83726119995117
 20
10.95469560122586
 30
0.0
 10
94.45367280396991
 20
10.45571001641461
 30
0.0
 10
95.68725409590165
 20
9.457125177398385
 30
0.0
 10
98.09475507149693
 20
9.491882150287713
 30
0.0
 10
100.0528276022401
 20
9.48520536254001
 30
0.0
 10
101.5456937126602
 20
9.952523961252082
 30
0.0
 10
102.1691889160528
 20
10.39661525651329
 30
0.0
 10
102.4388965653418
 20
10.58871748707239
 30
0.0
  0
SPLINE
  5
99
330
1F
100
AcDbEntity
  8
0
  6
Continuous
 62
     7
100
AcDbSpline
210
0.0
220
0.0
230
1.0
 70
     8
 71
     3
 72
    12
 73
     8
 74
     0
 42
0.00000001
 43
0.00000001
 40
0.0
 40
0.0
 40
0.0
 40
0.0
 40
0.2503362098823748
 40
0.5009895677695125
 40
0.7515046116767238
 40
0.8925074215821557
 40
1.0
 40
1.0
 40
1.0
 40
1.0
 10
69.87559795379639
 20
10.95469560122586
 30
0.0
 10
69.25922105451703
 20
10.45571051485977
 30
0.0
 10
68.0256863753023
 20
9.457108183780944
 30
0.0
 10
65.61820267930761
 20
9.491886906390166
 30
0.0
 10
63.66013318607312
 20
9.485204685874962
 30
0.0
 10
62.16726664563779
 20
9.952524053695356
 30
0.0
 10
61.54377147832416
 20
10.39661528442706
 30
0.0
 10
61.27406384464198
 20
10.58871748707238
 30
0.0
  0
SPLINE
  5
9A
330
1F
100
AcDbEntity
  8
0
  6
Continuous
 62
     7
100
AcDbSpline
210
0.0
220
0.0
230
1.0
 70
     8
 71
     3
 72
    15
 73
    11
 74
     0
 42
0.00000001
 43
0.00000001
 40
0.0
 40
0.0
 40
0.0
 40
0.0
 40
0.1246654439332551
 40
0.1870509855972908
 40
0.246022856255372
 40
0.3574740023521399
 40
0.4402749416040213
 40
0.6248426583572976
 40
0.8117486099851831
 40
1.0
 40
1.0
 40
1.0
 40
1.0
 10
71.22421264648438
 20
17.53818512361138
 30
0.0
 10
71.2203785523411
 20
17.20271514786837
 30
0.0
 10
71.21462578665282
 20
16.69936804845384
 30
0.0
 10
70.63950465956077
 20
16.30084780943452
 30
0.0
 10
70.00535153652345
 20
16.51430063840434
 30
0.0
 10
69.87143077916701
 20
17.20819531975403
 30
0.0
 10
69.36679647853514
 20
18.01915038537192
 30
0.0
 10
68.25046388949909
 20
18.56487029102278
 30
0.0
 10
66.81463300218006
 20
18.44594362515933
 30
0.0
 10
65.93448180892116
 20
18.10298437100844
 30
0.0
 10
65.49282795555747
 20
17.93088976123844
 30
0.0
  0
SPLINE
  5
9B
330
1F
100
AcDbEntity
  8
0
  6
Continuous
 62
     7
100
AcDbSpline
210
0.0
220
0.0
230
1.0
 70
     8
 71
     3
 72
     9
 73
     5
 74
     0
 42
0.00000001
 43
0.00000001
 40
0.0
 40
0.0
 40
0.0
 40
0.0
 40
0.5602011280757023
 40
1.0
 40
1.0
 40
1.0
 40
1.0
 10
70.3626275062561
 20
19.39183220354699
 30
0.0
 10
69.5949851232761
 20
19.30165113627627
 30
0.0
 10
68.22468730610312
 20
19.14067133321787
 30
0.0
 10
66.84533052108355
 20
19.13299000477012
 30
0.0
 10
66.23869096305083
 20
19.12961176518391
 30
0.0
  0
SPLINE
  5
9C
330
1F
100
AcDbEntity
  8
0
  6
Continuous
 62
     7
100
AcDbSpline
210
0.0
220
0.0
230
1.0
 70
     8
 71
     3
 72
     9
 73
     5
 74
     0
 42
0.00000001
 43
0.00000001
 40
0.0
 40
0.0
 40
0.0
 40
0.0
 40
0.5597720337290839
 40
1.0
 40
1.0
 40
1.0
 40
1.0
 10
70.81985473632812
 20
21.80605389477939
 30
0.0
 10
69.96714245974754
 20
21.71490588395601
 30
0.0
 10
68.44382184849799
 20
21.55207529340976
 30
0.0
 10
66.91272334389338
 20
21.58672300618881
 30
0.0
 10
66.23869096305084
 20
21.60197589832147
 30
0.0
  0
SPLINE
  5
9D
330
1F
100
AcDbEntity
  8
0
  6
Continuous
 62
     7
100
AcDbSpline
210
0.0
220
0.0
230
1.0
 70
     8
 71
     3
 72
    60
 73
    56
 74
     0
 42
0.00000001
 43
0.00000001
 40
0.0
 40
0.0
 40
0.0
 40
0.0
 40
0.0040209125085823
 40
0.007548980824708
 40
0.0118045396628999
 40
0.0178263381690449
 40
0.0341711920420528
 40
0.056792479757179
 40
0.0802726094642696
 40
0.1035921945171034
 40
0.1267734420782566
 40
0.1324016201126612
 40
0.136276460244168
 40
0.1377386236020262
 40
0.1385813282703236
 40
0.1407278559599917
 40
0.1420459805303901
 40
0.1434571760812339
 40
0.1449642594025522
 40
0.1479014393167149
 40
0.1520961377351226
 40
0.1584839177862173
 40
0.1665328014859495
 40
0.1737485823870449
 40
0.1897174815320478
 40
0.1993620012491401
 40
0.2092825262220395
 40
0.2246201618870526
 40
0.2519326760950315
 40
0.3350407688178337
 40
0.4182607781120196
 40
0.5014078855128374
 40
0.5713788380916583
 40
0.5990197025898878
 40
0.6256928151210561
 40
0.637881707245841
 40
0.6446748562429468
 40
0.6491193026729137
 40
0.6535947242419421
 40
0.657731969984793
 40
0.67306408290052
 40
0.6886889939482456
 40
0.709213687104077
 40
0.730191211711204
 40
0.7507475073641198
 40
0.7819670898287786
 40
0.8127500585235501
 40
0.8282829244520185
 40
0.8440020041321442
 40
0.8751238993608907
 40
0.9100859094254033
 40
0.9450496049479185
 40
0.9758033961408374
 40
0.9878821815386718
 40
1.0
 40
1.0
 40
1.0
 40
1.0
 10
101.3564467430115
 20
8.325229306026413
 30
0.0
 10
101.4782868812078
 20
8.367627172102962
 30
0.0
 10
101.7070331831879
 20
8.447226187833158
 30
0.0
 10
102.0691086882807
 20
8.539444384760714
 30
0.0
 10
102.5136690745034
 20
8.669406895305668
 30
0.0
 10
102.9284110573237
 20
9.48722825727106
 30
0.0
 10
102.9837418230019
 20
10.96755299672105
 30
0.0
 10
102.0062362559066
 20
12.81247791747177
 30
0.0
 10
100.3760178794222
 20
14.32411233135364
 30
0.0
 10
99.16229284991941
 20
16.23596843010132
 30
0.0
 10
98.51517859842077
 20
17.7707343346926
 30
0.0
 10
98.28970487937055
 20
18.8138834209646
 30
0.0
 10
98.22354408000812
 20
19.13277018743488
 30
0.0
 10
98.16692083956414
 20
19.35764101055563
 30
0.0
 10
98.30988519293312
 20
19.44107081526437
 30
0.0
 10
98.43923690236115
 20
19.35845781468706
 30
0.0
 10
98.61743694872754
 20
19.43961603705195
 30
0.0
 10
98.57160159875181
 20
19.59421675210649
 30
0.0
 10
98.52332864550792
 20
19.7657314761651
 30
0.0
 10
98.41765276599891
 20
20.02840985019794
 30
0.0
 10
98.39532702222832
 20
20.46496870338105
 30
0.0
 10
98.49380614399603
 20
21.05888482622158
 30
0.0
 10
98.196617964335
 20
21.75076828023584
 30
0.0
 10
98.709569038821
 20
22.69086544899628
 30
0.0
 10
99.7536963787547
 20
23.27316919094504
 30
0.0
 10
99.63955480655474
 20
24.51220333745369
 30
0.0
 10
99.38708391750878
 20
25.57355978755853
 30
0.0
 10
98.92744462597278
 20
27.21505395320358
 30
0.0
 10
99.17527749631647
 20
31.26840231548777
 30
0.0
 10
99.71390214955471
 20
37.44589634099687
 30
0.0
 10
98.51312543678355
 20
45.37274359024841
 30
0.0
 10
97.92335162500476
 20
52.93648647431832
 30
0.0
 10
98.51276897559816
 20
58.69313565145132
 30
0.0
 10
98.28504891265754
 20
62.70217061452729
 30
0.0
 10
98.791977293903
 20
64.75758574716775
 30
0.0
 10
98.80491049498714
 20
66.28013525022808
 30
0.0
 10
98.48352386980439
 20
66.93412620715652
 30
0.0
 10
98.5597171489331
 20
67.55432192436784
 30
0.0
 10
99.06307991653024
 20
67.5215025049689
 30
0.0
 10
99.80625098559155
 20
67.51533050237731
 30
0.0
 10
100.7651082936906
 20
68.26938736153622
 30
0.0
 10
102.2143818546102
 20
69.02616444195205
 30
0.0
 10
103.2642933118903
 20
70.6287031336481
 30
0.0
 10
103.820025745494
 20
72.53842210445711
 30
0.0
 10
104.0769589976651
 20
74.86020286505654
 30
0.0
 10
103.8141283318559
 20
77.53798440105412
 30
0.0
 10
104.8218741749243
 20
79.89025887117145
 30
0.0
 10
105.9731900341661
 20
81.53333175911662
 30
0.0
 10
106.2008357408817
 20
83.59407774702402
 30
0.0
 10
105.2163696467103
 20
86.11156480854618
 30
0.0
 10
105.9395631895537
 20
89.36873934313644
 30
0.0
 10
105.7375072115292
 20
92.5745055281323
 30
0.0
 10
105.8981953674481
 20
95.08783062524842
 30
0.0
 10
105.3955719239747
 20
96.80148268311635
 30
0.0
 10
105.4929320820207
 20
97.5779250556515
 30
0.0
 10
105.5416906899409
 20
97.96677250593122
 30
0.0
  0
SPLINE
  5
9E
330
1F
100
AcDbEntity
  8
0
  6
Continuous
 62
     7
100
AcDbSpline
210
0.0
220
0.0
230
1.0
 70
     8
 71
     3
 72
    60
 73
    56
 74
     0
 42
0.00000001
 43
0.00000001
 40
0.0
 40
0.0
 40
0.0
 40
0.0
 40
0.0040205021783739
 40
0.0075485719480516
 40
0.0118041325394713
 40
0.0178259335264713
 40
0.0341707941333571
 40
0.0567920911681566
 40
0.0802722305487489
 40
0.1035918252089435
 40
0.1267730823204608
 40
0.1324012626736065
 40
0.1362761044015016
 40
0.1377382683617341
 40
0.1385809733772219
 40
0.1407275019512346
 40
0.1420456270646684
 40
0.1434568231969224
 40
0.1449639071391467
 40
0.147901088263387
 40
0.152095788409943
 40
0.1584835710927187
 40
0.1665324581084864
 40
0.1737482419823893
 40
0.1897171477063632
 40
0.1993616713968729
 40
0.2092822004568962
 40
0.2246198424408125
 40
0.2519323679011865
 40
0.3350404948634239
 40
0.4182605384431534
 40
0.5014076800994799
 40
0.5713786615054084
 40
0.5990195373913078
 40
0.6256926609114462
 40
0.6378815580578956
 40
0.6446747098536881
 40
0.6491191581147013
 40
0.6535945815275506
 40
0.6577318289748917
 40
0.6730639482072454
 40
0.6886888656922274
 40
0.7092135673039611
 40
0.7301911005535511
 40
0.7507474046753889
 40
0.781967000002103
 40
0.8127499813790497
 40
0.8282828537068538
 40
0.8440019398630326
 40
0.8751238479135885
 40
0.9100858723819866
 40
0.9450495823090822
 40
0.9758033861721565
 40
0.9878821765462905
 40
1.0
 40
1.0
 40
1.0
 40
1.0
 10
62.35647201538086
 20
8.325229306026408
 30
0.0
 10
62.23464610950906
 20
8.367628054684245
 30
0.0
 10
62.00591557416539
 20
8.447232539535062
 30
0.0
 10
61.64385141824412
 20
8.539443418580975
 30
0.0
 10
61.19929146087791
 20
8.669407294593286
 30
0.0
 10
60.78454923937566
 20
9.487227896566415
 30
0.0
 10
60.72921864565918
 20
10.96755318356481
 30
0.0
 10
61.70672413551567
 20
12.81247785835973
 30
0.0
 10
63.33694253559435
 20
14.32411234737338
 30
0.0
 10
64.55066755867573
 20
16.23596842567848
 30
0.0
 10
65.19778181164509
 20
17.77073433495167
 30
0.0
 10
65.42325553060738
 20
18.81388342094914
 30
0.0
 10
65.48941632997798
 20
19.13277018743875
 30
0.0
 10
65.5460395704187
 20
19.35764101056014
 30
0.0
 10
65.403075217046
 20
19.44107081526268
 30
0.0
 10
65.27372350761883
 20
19.35845781468518
 30
0.0
 10
65.09552346125535
 20
19.43961603705634
 30
0.0
 10
65.14135881123327
 20
19.59421675210989
 30
0.0
 10
65.18963176447726
 20
19.76573147616944
 30
0.0
 10
65.29530764398616
 20
20.02840985020201
 30
0.0
 10
65.31763338775431
 20
20.46496870338492
 30
0.0
 10
65.21915426598855
 20
21.05888482622488
 30
0.0
 10
65.51634244564997
 20
21.75076828023992
 30
0.0
 10
65.00339137115776
 20
22.6908654489971
 30
0.0
 10
63.95926403122782
 20
23.27316919094886
 30
0.0
 10
64.07340560342999
 20
24.51220333745687
 30
0.0
 10
64.32587649247569
 20
25.57355978756177
 30
0.0
 10
64.78551578401178
 20
27.21505395320673
 30
0.0
 10
64.5376829136655
 20
31.26840231549079
 30
0.0
 10
63.99905826042981
 20
37.44589634099965
 30
0.0
 10
65.19983497320067
 20
45.37274359025082
 30
0.0
 10
65.78960878497872
 20
52.93648647432039
 30
0.0
 10
65.20019143438586
 20
58.69313565145323
 30
0.0
 10
65.42791149732602
 20
62.7021706145289
 30
0.0
 10
64.92098311608079
 20
64.75758574716954
 30
0.0
 10
64.9080499149964
 20
66.28013525022955
 30
0.0
 10
65.22943654018069
 20
66.93412620715812
 30
0.0
 10
65.15324326104883
 20
67.55432192436862
 30
0.0
 10
64.64988049345212
 20
67.52150250496878
 30
0.0
 10
63.90670942439048
 20
67.51533050237758
 30
0.0
 10
62.9478521162924
 20
68.26938736153744
 30
0.0
 10
61.49857855537223
 20
69.02616444195256
 30
0.0
 10
60.44866709809341
 20
70.62870313364947
 30
0.0
 10
59.89293466448925
 20
72.53842210445815
 30
0.0
 10
59.636001412319
 20
74.86020286505757
 30
0.0
 10
59.89883207812783
 20
77.53798440105508
 30
0.0
 10
58.89108623505883
 20
79.89025887117198
 30
0.0
 10
57.73977037581749
 20
81.53333175911736
 30
0.0
 10
57.5121246691022
 20
83.59407774702463
 30
0.0
 10
58.49659076327359
 20
86.11156480854667
 30
0.0
 10
57.77339722042998
 20
89.36873934313682
 30
0.0
 10
57.97545319845463
 20
92.5745055281325
 30
0.0
 10
57.81476504253564
 20
95.08783062524853
 30
0.0
 10
58.31738848600915
 20
96.80148268311638
 30
0.0
 10
58.22002832796306
 20
97.5779250556515
 30
0.0
 10
58.17126972004289
 20
97.96677250593122
 30
0.0
  0
MTEXT
  5
A0
330
1F
100
AcDbEntity
  8
0
  6
Continuous
 62
     7
100
AcDbMText
 10
57.64992032
 20
4.9212403952
 30
0.0
 40
4.83362
 41
0.0
 71
     1
 72
     1
  1
Producto SOLIDWORKS Educational.
  7
SLDTEXTSTYLE0
 73
     1
 44
1.0
  0
MTEXT
  5
A1
330
1F
100
AcDbEntity
  8
0
  6
Continuous
 62
     7
100
AcDbMText
 10
57.64992032
 20
-2.3291896048
 30
0.0
 40
4.83362
 41
0.0
 71
     1
 72
     1
  1
Solo para uso en la enseanza.
  7
SLDTEXTSTYLE0
 73
     1
 44
1.0
  0
ENDSEC
  0
SECTION
  2
OBJECTS
  0
DICTIONARY
  5
C
330
0
100
AcDbDictionary
281
     1
  3
ACAD_GROUP
350
D
  3
ACAD_LAYOUT
350
1A
  3
ACAD_MLINESTYLE
350
17
  3
ACAD_PLOTSETTINGS
350
19
  3
ACAD_PLOTSTYLENAME
350
E
  3
ACAD_SCALELIST
350
47
  3
DWGPROPS
350
A2
  0
DICTIONARY
  5
D
102
{ACAD_REACTORS
330
C
102
}
330
C
100
AcDbDictionary
281
     1
  0
DICTIONARY
  5
1A
102
{ACAD_REACTORS
330
C
102
}
330
C
100
AcDbDictionary
281
     1
  3
Layout1
350
1E
  3
Layout2
350
26
  3
Model
350
22
  0
DICTIONARY
  5
17
102
{ACAD_REACTORS
330
C
102
}
330
C
100
AcDbDictionary
281
     1
  3
Standard
350
18
  0
DICTIONARY
  5
19
102
{ACAD_REACTORS
330
C
102
}
330
C
100
AcDbDictionary
281
     1
  0
ACDBDICTIONARYWDFLT
  5
E
102
{ACAD_REACTORS
330
C
102
}
330
C
100
AcDbDictionary
281
     1
  3
Normal
350
F
100
AcDbDictionaryWithDefault
340
F
  0
DICTIONARY
  5
47
102
{ACAD_REACTORS
330
C
102
}
330
C
100
AcDbDictionary
281
     1
  3
A0
350
48
  3
A1
350
49
  3
A2
350
4A
  3
A3
350
4B
  3
A4
350
4C
  3
A5
350
4D
  3
A6
350
4E
  3
A7
350
4F
  3
A8
350
50
  3
A9
350
51
  3
B0
350
52
  3
B1
350
53
  3
B2
350
54
  3
B3
350
55
  3
B4
350
56
  3
B5
350
57
  3
B6
350
58
  0
XRECORD
  5
A2
102
{ACAD_REACTORS
330
C
102
}
330
C
100
AcDbXrecord
280
     1
  1
DWGPROPS COOKIE
  2

  3

  4

  6

  7

  8
geres
  9

300
=
301
=
302
=
303
=
304
=
305
=
306
=
307
=
308
=
309
=
 40
0.0
 41
2461007.662158311
 42
2461007.662367385
  1

 90
        0
  0
LAYOUT
  5
1E
102
{ACAD_REACTORS
330
1A
102
}
330
1A
100
AcDbPlotSettings
  1

  2
none_device
  4

  6

 40
0.0
 41
0.0
 42
0.0
 43
0.0
 44
0.0
 45
0.0
 46
0.0
 47
0.0
 48
0.0
 49
0.0
140
0.0
141
0.0
142
1.0
143
1.0
 70
   688
 72
     1
 73
     0
 74
     5
  7

 75
    16
147
1.0
148
0.0
149
0.0
100
AcDbLayout
  1
Layout1
 70
     1
 71
     1
 10
0.0
 20
0.0
 11
420.0
 21
297.0
 12
0.0
 22
0.0
 32
0.0
 14
1.0000000000E+20
 24
1.0000000000E+20
 34
1.0000000000E+20
 15
-1.0000000000E+20
 25
-1.0000000000E+20
 35
-1.0000000000E+20
146
0.0
 13
0.0
 23
0.0
 33
0.0
 16
1.0
 26
0.0
 36
0.0
 17
0.0
 27
1.0
 37
0.0
 76
     0
330
1B
  0
LAYOUT
  5
26
102
{ACAD_REACTORS
330
1A
102
}
330
1A
100
AcDbPlotSettings
  1

  2
none_device
  4

  6

 40
0.0
 41
0.0
 42
0.0
 43
0.0
 44
0.0
 45
0.0
 46
0.0
 47
0.0
 48
0.0
 49
0.0
140
0.0
141
0.0
142
1.0
143
1.0
 70
   688
 72
     1
 73
     0
 74
     5
  7

 75
    16
147
1.0
148
0.0
149
0.0
100
AcDbLayout
  1
Layout2
 70
     1
 71
     2
 10
0.0
 20
0.0
 11
0.0
 21
0.0
 12
0.0
 22
0.0
 32
0.0
 14
0.0
 24
0.0
 34
0.0
 15
0.0
 25
0.0
 35
0.0
146
0.0
 13
0.0
 23
0.0
 33
0.0
 16
1.0
 26
0.0
 36
0.0
 17
0.0
 27
1.0
 37
0.0
 76
     0
330
23
  0
LAYOUT
  5
22
102
{ACAD_REACTORS
330
1A
102
}
330
1A
100
AcDbPlotSettings
  1

  2
none_device
  4
ANSI_A_(11.00_x_8.50_Inches)
  6

 40
6.35
 41
19.05
 42
6.35000508
 43
19.05000254
 44
279.4
 45
215.9
 46
-0.7520710522
 47
-27.7030780361
 48
0.0
 49
0.0
140
0.0
141
0.0
142
0.0644983632
143
1.0
 70
  1696
 72
     0
 73
     0
 74
     0
  7

 75
     0
147
0.0179189148
148
-1300.4909072572
149
0.0
100
AcDbLayout
  1
Model
 70
     1
 71
     0
 10
0.0
 20
0.0
 11
420.0
 21
297.0
 12
0.0
 22
0.0
 32
0.0
 14
57.64992032
 24
5.9408067869
 34
0.0
 15
106.063040369
 25
136.4092340037
 35
0.0
146
0.0
 13
0.0
 23
0.0
 33
0.0
 16
1.0
 26
0.0
 36
0.0
 17
0.0
 27
1.0
 37
0.0
 76
     0
330
1F
331
29
  0
MLINESTYLE
  5
18
102
{ACAD_REACTORS
330
17
102
}
330
17
100
AcDbMlineStyle
  2
Standard
 70
     0
  3

 62
   256
 51
90.0
 52
90.0
 71
     2
 49
0.5
 62
   256
  6
BYLAYER
 49
-0.5
 62
   256
  6
BYLAYER
  0
ACDBPLACEHOLDER
  5
F
102
{ACAD_REACTORS
330
E
102
}
330
E
  0
SCALE
  5
48
102
{ACAD_REACTORS
330
47
102
}
330
47
100
AcDbScale
 70
     0
300
1:1
140
1.0
141
1.0
290
     1
  0
SCALE
  5
49
102
{ACAD_REACTORS
330
47
102
}
330
47
100
AcDbScale
 70
     0
300
1:2
140
1.0
141
2.0
290
     0
  0
SCALE
  5
4A
102
{ACAD_REACTORS
330
47
102
}
330
47
100
AcDbScale
 70
     0
300
1:4
140
1.0
141
4.0
290
     0
  0
SCALE
  5
4B
102
{ACAD_REACTORS
330
47
102
}
330
47
100
AcDbScale
 70
     0
300
1:5
140
1.0
141
5.0
290
     0
  0
SCALE
  5
4C
102
{ACAD_REACTORS
330
47
102
}
330
47
100
AcDbScale
 70
     0
300
1:8
140
1.0
141
8.0
290
     0
  0
SCALE
  5
4D
102
{ACAD_REACTORS
330
47
102
}
330
47
100
AcDbScale
 70
     0
300
1:10
140
1.0
141
10.0
290
     0
  0
SCALE
  5
4E
102
{ACAD_REACTORS
330
47
102
}
330
47
100
AcDbScale
 70
     0
300
1:16
140
1.0
141
16.0
290
     0
  0
SCALE
  5
4F
102
{ACAD_REACTORS
330
47
102
}
330
47
100
AcDbScale
 70
     0
300
1:20
140
1.0
141
20.0
290
     0
  0
SCALE
  5
50
102
{ACAD_REACTORS
330
47
102
}
330
47
100
AcDbScale
 70
     0
300
1:30
140
1.0
141
30.0
290
     0
  0
SCALE
  5
51
102
{ACAD_REACTORS
330
47
102
}
330
47
100
AcDbScale
 70
     0
300
1:40
140
1.0
141
40.0
290
     0
  0
SCALE
  5
52
102
{ACAD_REACTORS
330
47
102
}
330
47
100
AcDbScale
 70
     0
300
1:50
140
1.0
141
50.0
290
     0
  0
SCALE
  5
53
102
{ACAD_REACTORS
330
47
102
}
330
47
100
AcDbScale
 70
     0
300
1:100
140
1.0
141
100.0
290
     0
  0
SCALE
  5
54
102
{ACAD_REACTORS
330
47
102
}
330
47
100
AcDbScale
 70
     0
300
2:1
140
2.0
141
1.0
290
     0
  0
SCALE
  5
55
102
{ACAD_REACTORS
330
47
102
}
330
47
100
AcDbScale
 70
     0
300
4:1
140
4.0
141
1.0
290
     0
  0
SCALE
  5
56
102
{ACAD_REACTORS
330
47
102
}
330
47
100
AcDbScale
 70
     0
300
8:1
140
8.0
141
1.0
290
     0
  0
SCALE
  5
57
102
{ACAD_REACTORS
330
47
102
}
330
47
100
AcDbScale
 70
     0
300
10:1
140
10.0
141
1.0
290
     0
  0
SCALE
  5
58
102
{ACAD_REACTORS
330
47
102
}
330
47
100
AcDbScale
 70
     0
300
100:1
140
100.0
141
1.0
290
     0
  0
ENDSEC
  0
EOF
